<svg width="640" height="151" version="1.1" xmlns="http://www.w3.org/2000/svg" desc="Created with imagetracer.js version 1.2.6" ><path fill="rgb(0,0,0)" stroke="rgb(0,0,0)" stroke-width="1" opacity="0.8313725490196079" d="M 571.5 1 L 572.5 58 L 574 57.5 L 571 59 L 571.5 1 Z " /><path fill="rgb(0,0,0)" stroke="rgb(0,0,0)" stroke-width="1" opacity="0.8313725490196079" d="M 230.5 23 L 237 23.5 L 230.5 24 L 230.5 23 Z " /><path fill="rgb(0,0,0)" stroke="rgb(0,0,0)" stroke-width="1" opacity="0.8313725490196079" d="M 262.5 23 L 283.5 23 L 284 23.5 L 284 113.5 L 283 113.5 L 283 24.5 L 282.5 24 L 262 24 L 261.5 33 L 261 24.5 L 262.5 23 Z " /><path fill="rgb(0,0,0)" stroke="rgb(0,0,0)" stroke-width="1" opacity="0.8313725490196079" d="M 339.5 23 L 345 23.5 L 339.5 24 L 339.5 23 Z " /><path fill="rgb(0,0,0)" stroke="rgb(0,0,0)" stroke-width="1" opacity="0.8313725490196079" d="M 346.5 23 L 352 23.5 L 346.5 24 L 346.5 23 Z " /><path fill="rgb(0,0,0)" stroke="rgb(0,0,0)" stroke-width="1" opacity="0.8313725490196079" d="M 407.5 23 L 429.5 23 L 430 23.5 L 430 126.5 L 429 126.5 L 429 24.5 L 428.5 24 L 407 24 L 406.5 124 L 406 24.5 L 407.5 23 Z " /><path fill="rgb(0,0,0)" stroke="rgb(0,0,0)" stroke-width="1" opacity="0.8313725490196079" d="M 487.5 23 L 492 23.5 L 487.5 24 L 487.5 23 Z " /><path fill="rgb(0,0,0)" stroke="rgb(0,0,0)" stroke-width="1" opacity="0.8313725490196079" d="M 638.5 24 L 630.5 33 L 638.5 24 Z " /><path fill="rgb(0,0,0)" stroke="rgb(0,0,0)" stroke-width="1" opacity="0.8313725490196079" d="M 603.5 29 L 596.5 37 L 603.5 29 Z " /><path fill="rgb(0,0,0)" stroke="rgb(0,0,0)" stroke-width="1" opacity="0.8313725490196079" d="M 515.5 30 L 516.5 32 L 515.5 30 Z " /><path fill="rgb(0,0,0)" stroke="rgb(0,0,0)" stroke-width="1" opacity="0.8313725490196079" d="M 206.5 31 L 205.5 33 L 206.5 31 Z " /><path fill="rgb(0,0,0)" stroke="rgb(0,0,0)" stroke-width="1" opacity="0.8313725490196079" d="M 315.5 32 L 314.5 34 L 315.5 32 Z " /><path fill="rgb(0,0,0)" stroke="rgb(0,0,0)" stroke-width="1" opacity="0.8313725490196079" d="M 376.5 33 L 382.5 40 L 376.5 33 Z " /><path fill="rgb(0,0,0)" stroke="rgb(0,0,0)" stroke-width="1" opacity="0.8313725490196079" d="M 519.5 33 L 525.5 40 L 519.5 33 Z " /><path fill="rgb(0,0,0)" stroke="rgb(0,0,0)" stroke-width="1" opacity="0.8313725490196079" d="M 458.5 34 L 454.5 39 L 458.5 34 Z " /><path fill="rgb(0,0,0)" stroke="rgb(0,0,0)" stroke-width="1" opacity="0.8313725490196079" d="M 201.5 35 L 200.5 37 L 201.5 35 Z " /><path fill="rgb(0,0,0)" stroke="rgb(0,0,0)" stroke-width="1" opacity="0.8313725490196079" d="M 197.5 40 L 196.5 42 L 197.5 40 Z " /><path fill="rgb(0,0,0)" stroke="rgb(0,0,0)" stroke-width="1" opacity="0.8313725490196079" d="M 307.5 40 L 306.5 42 L 307.5 40 Z " /><path fill="rgb(0,0,0)" stroke="rgb(0,0,0)" stroke-width="1" opacity="0.8313725490196079" d="M 452.5 41 L 451.5 43 L 452.5 41 Z " /><path fill="rgb(0,0,0)" stroke="rgb(0,0,0)" stroke-width="1" opacity="0.8313725490196079" d="M 620.5 41 L 612.5 50 L 620.5 41 Z " /><path fill="rgb(0,0,0)" stroke="rgb(0,0,0)" stroke-width="1" opacity="0.8313725490196079" d="M 341.5 43 L 349 43.5 L 341.5 44 L 341.5 43 Z " /><path fill="rgb(0,0,0)" stroke="rgb(0,0,0)" stroke-width="1" opacity="0.8313725490196079" d="M 588.5 43 L 581.5 51 L 588.5 43 Z " /><path fill="rgb(0,0,0)" stroke="rgb(0,0,0)" stroke-width="1" opacity="0.8313725490196079" d="M 505.5 46 L 509.5 51 L 505.5 46 Z " /><path fill="rgb(0,0,0)" stroke="rgb(0,0,0)" stroke-width="1" opacity="0.8313725490196079" d="M 330.5 47 L 329.5 49 L 330.5 47 Z " /><path fill="rgb(0,0,0)" stroke="rgb(0,0,0)" stroke-width="1" opacity="0.8313725490196079" d="M 359.5 47 L 360.5 49 L 359.5 47 Z " /><path fill="rgb(0,0,0)" stroke="rgb(0,0,0)" stroke-width="1" opacity="0.8313725490196079" d="M 220.5 48 L 216.5 53 L 220.5 48 Z " /><path fill="rgb(0,0,0)" stroke="rgb(0,0,0)" stroke-width="1" opacity="0.8313725490196079" d="M 326.5 51 L 325.5 53 L 326.5 51 Z " /><path fill="rgb(0,0,0)" stroke="rgb(0,0,0)" stroke-width="1" opacity="0.8313725490196079" d="M 364.5 52 L 365.5 54 L 364.5 52 Z " /><path fill="rgb(0,0,0)" stroke="rgb(0,0,0)" stroke-width="1" opacity="0.8313725490196079" d="M 257.5 53 L 258.5 55 L 257.5 53 Z " /><path fill="rgb(0,0,0)" stroke="rgb(0,0,0)" stroke-width="1" opacity="0.8313725490196079" d="M 603.5 57 L 601.5 60 L 603.5 57 Z " /><path fill="rgb(0,0,0)" stroke="rgb(0,0,0)" stroke-width="1" opacity="0.8313725490196079" d="M 260.5 60 L 261 73.5 L 260 73.5 L 260.5 60 Z " /><path fill="rgb(0,0,0)" stroke="rgb(0,0,0)" stroke-width="1" opacity="0.8313725490196079" d="M 298.5 61 L 299 63.5 L 298 63.5 L 298.5 61 Z " /><path fill="rgb(0,0,0)" stroke="rgb(0,0,0)" stroke-width="1" opacity="0.8313725490196079" d="M 444.5 61 L 445 64.5 L 444 64.5 L 444.5 61 Z " /><path fill="rgb(0,0,0)" stroke="rgb(0,0,0)" stroke-width="1" opacity="0.8313725490196079" d="M 188.5 63 L 189 70.5 L 188 70.5 L 188.5 63 Z " /><path fill="rgb(0,0,0)" stroke="rgb(0,0,0)" stroke-width="1" opacity="0.8313725490196079" d="M 607.5 69 L 608.5 71 L 607.5 69 Z " /><path fill="rgb(0,0,0)" stroke="rgb(0,0,0)" stroke-width="1" opacity="0.8313725490196079" d="M 298.5 70 L 299 73.5 L 298 73.5 L 298.5 70 Z " /><path fill="rgb(0,0,0)" stroke="rgb(0,0,0)" stroke-width="1" opacity="0.8313725490196079" d="M 444.5 70 L 445 73.5 L 444 73.5 L 444.5 70 Z " /><path fill="rgb(0,0,0)" stroke="rgb(0,0,0)" stroke-width="1" opacity="0.8313725490196079" d="M 610.5 73 L 611.5 75 L 610.5 73 Z " /><path fill="rgb(0,0,0)" stroke="rgb(0,0,0)" stroke-width="1" opacity="0.8313725490196079" d="M 585.5 74 L 577.5 83 L 585.5 74 Z " /><path fill="rgb(0,0,0)" stroke="rgb(0,0,0)" stroke-width="1" opacity="0.8313725490196079" d="M 613.5 77 L 614.5 79 L 613.5 77 Z " /><path fill="rgb(0,0,0)" stroke="rgb(0,0,0)" stroke-width="1" opacity="0.8313725490196079" d="M 590.5 80 L 591.5 82 L 590.5 80 Z " /><path fill="rgb(0,0,0)" stroke="rgb(0,0,0)" stroke-width="1" opacity="0.8313725490196079" d="M 257.5 81 L 253.5 86 L 257.5 81 Z " /><path fill="rgb(0,0,0)" stroke="rgb(0,0,0)" stroke-width="1" opacity="0.8313725490196079" d="M 616.5 81 L 617.5 83 L 616.5 81 Z " /><path fill="rgb(0,0,0)" stroke="rgb(0,0,0)" stroke-width="1" opacity="0.8313725490196079" d="M 216.5 82 L 219.5 86 L 216.5 82 Z " /><path fill="rgb(0,0,0)" stroke="rgb(0,0,0)" stroke-width="1" opacity="0.8313725490196079" d="M 469.5 82 L 470.5 84 L 469.5 82 Z " /><path fill="rgb(0,0,0)" stroke="rgb(0,0,0)" stroke-width="1" opacity="0.8313725490196079" d="M 363.5 83 L 361.5 86 L 363.5 83 Z " /><path fill="rgb(0,0,0)" stroke="rgb(0,0,0)" stroke-width="1" opacity="0.8313725490196079" d="M 327.5 84 L 328.5 86 L 327.5 84 Z " /><path fill="rgb(0,0,0)" stroke="rgb(0,0,0)" stroke-width="1" opacity="0.8313725490196079" d="M 514.5 84 L 512.5 87 L 514.5 84 Z " /><path fill="rgb(0,0,0)" stroke="rgb(0,0,0)" stroke-width="1" opacity="0.8313725490196079" d="M 619.5 85 L 620.5 87 L 619.5 85 Z " /><path fill="rgb(0,0,0)" stroke="rgb(0,0,0)" stroke-width="1" opacity="0.8313725490196079" d="M 473.5 86 L 474.5 88 L 473.5 86 Z " /><path fill="rgb(0,0,0)" stroke="rgb(0,0,0)" stroke-width="1" opacity="0.8313725490196079" d="M 520.5 87 L 521.5 89 L 520.5 87 Z " /><path fill="rgb(0,0,0)" stroke="rgb(0,0,0)" stroke-width="1" opacity="0.8313725490196079" d="M 595.5 87 L 596.5 89 L 595.5 87 Z " /><path fill="rgb(0,0,0)" stroke="rgb(0,0,0)" stroke-width="1" opacity="0.8313725490196079" d="M 571.5 88 L 572 111.5 L 571 111.5 L 571.5 88 Z " /><path fill="rgb(0,0,0)" stroke="rgb(0,0,0)" stroke-width="1" opacity="0.8313725490196079" d="M 386.5 89 L 385.5 91 L 386.5 89 Z " /><path fill="rgb(0,0,0)" stroke="rgb(0,0,0)" stroke-width="1" opacity="0.8313725490196079" d="M 523.5 89 L 524.5 91 L 523.5 89 Z " /><path fill="rgb(0,0,0)" stroke="rgb(0,0,0)" stroke-width="1" opacity="0.8313725490196079" d="M 622.5 89 L 623.5 91 L 622.5 89 Z " /><path fill="rgb(0,0,0)" stroke="rgb(0,0,0)" stroke-width="1" opacity="0.8313725490196079" d="M 230.5 90 L 233 90.5 L 230.5 91 L 230.5 90 Z " /><path fill="rgb(0,0,0)" stroke="rgb(0,0,0)" stroke-width="1" opacity="0.8313725490196079" d="M 195.5 91 L 196.5 93 L 195.5 91 Z " /><path fill="rgb(0,0,0)" stroke="rgb(0,0,0)" stroke-width="1" opacity="0.8313725490196079" d="M 384.5 92 L 383.5 94 L 384.5 92 Z " /><path fill="rgb(0,0,0)" stroke="rgb(0,0,0)" stroke-width="1" opacity="0.8313725490196079" d="M 451.5 92 L 452.5 94 L 451.5 92 Z " /><path fill="rgb(0,0,0)" stroke="rgb(0,0,0)" stroke-width="1" opacity="0.8313725490196079" d="M 497.5 92 L 500 92.5 L 497.5 93 L 497.5 92 Z " /><path fill="rgb(0,0,0)" stroke="rgb(0,0,0)" stroke-width="1" opacity="0.8313725490196079" d="M 600.5 94 L 601.5 96 L 600.5 94 Z " /><path fill="rgb(0,0,0)" stroke="rgb(0,0,0)" stroke-width="1" opacity="0.8313725490196079" d="M 626.5 94 L 627.5 96 L 626.5 94 Z " /><path fill="rgb(0,0,0)" stroke="rgb(0,0,0)" stroke-width="1" opacity="0.8313725490196079" d="M 198.5 95 L 203.5 101 L 198.5 95 Z " /><path fill="rgb(0,0,0)" stroke="rgb(0,0,0)" stroke-width="1" opacity="0.8313725490196079" d="M 308.5 95 L 312.5 100 L 308.5 95 Z " /><path fill="rgb(0,0,0)" stroke="rgb(0,0,0)" stroke-width="1" opacity="0.8313725490196079" d="M 529.5 96 L 527.5 99 L 529.5 96 Z " /><path fill="rgb(0,0,0)" stroke="rgb(0,0,0)" stroke-width="1" opacity="0.8313725490196079" d="M 603.5 98 L 604.5 100 L 603.5 98 Z " /><path fill="rgb(0,0,0)" stroke="rgb(0,0,0)" stroke-width="1" opacity="0.8313725490196079" d="M 629.5 98 L 630.5 100 L 629.5 98 Z " /><path fill="rgb(0,0,0)" stroke="rgb(0,0,0)" stroke-width="1" opacity="0.8313725490196079" d="M 261.5 101 L 262 111.5 L 261 111.5 L 261.5 101 Z " /><path fill="rgb(0,0,0)" stroke="rgb(0,0,0)" stroke-width="1" opacity="0.8313725490196079" d="M 460.5 101 L 461.5 103 L 460.5 101 Z " /><path fill="rgb(0,0,0)" stroke="rgb(0,0,0)" stroke-width="1" opacity="0.8313725490196079" d="M 523.5 101 L 522.5 103 L 523.5 101 Z " /><path fill="rgb(0,0,0)" stroke="rgb(0,0,0)" stroke-width="1" opacity="0.8313725490196079" d="M 206.5 102 L 207.5 104 L 206.5 102 Z " /><path fill="rgb(0,0,0)" stroke="rgb(0,0,0)" stroke-width="1" opacity="0.8313725490196079" d="M 632.5 102 L 633.5 104 L 632.5 102 Z " /><path fill="rgb(0,0,0)" stroke="rgb(0,0,0)" stroke-width="1" opacity="0.8313725490196079" d="M 256.5 104 L 255.5 106 L 256.5 104 Z " /><path fill="rgb(0,0,0)" stroke="rgb(0,0,0)" stroke-width="1" opacity="0.8313725490196079" d="M 608.5 105 L 609.5 107 L 608.5 105 Z " /><path fill="rgb(0,0,0)" stroke="rgb(0,0,0)" stroke-width="1" opacity="0.8313725490196079" d="M 635.5 106 L 636.5 108 L 635.5 106 Z " /><path fill="rgb(0,0,0)" stroke="rgb(0,0,0)" stroke-width="1" opacity="0.8313725490196079" d="M 225.5 110 L 228 110.5 L 225.5 111 L 225.5 110 Z " /><path fill="rgb(0,0,0)" stroke="rgb(0,0,0)" stroke-width="1" opacity="0.8313725490196079" d="M 239.5 110 L 242 110.5 L 239.5 111 L 239.5 110 Z " /><path fill="rgb(0,0,0)" stroke="rgb(0,0,0)" stroke-width="1" opacity="0.8313725490196079" d="M 352.5 110 L 355 110.5 L 352.5 111 L 352.5 110 Z " /><path fill="rgb(0,0,0)" stroke="rgb(0,0,0)" stroke-width="1" opacity="0.8313725490196079" d="M 638.5 110 L 639.5 112 L 638.5 110 Z " /><path fill="rgb(0,0,0)" stroke="rgb(0,0,0)" stroke-width="1" opacity="0.8313725490196079" d="M 491.5 111 L 496 111.5 L 491.5 112 L 491.5 111 Z " /><path fill="rgb(0,0,0)" stroke="rgb(0,0,0)" stroke-width="1" opacity="0.8313725490196079" d="M 256.5 122 L 255.5 124 L 256.5 122 Z " /><path fill="rgb(0,0,0)" stroke="rgb(0,0,0)" stroke-width="1" opacity="0.8313725490196079" d="M 204.5 125 L 197 133.5 L 200 137.5 L 196 134.5 L 204.5 125 Z " /><path fill="rgb(0,0,0)" stroke="rgb(0,0,0)" stroke-width="1" opacity="0.8313725490196079" d="M 252.5 125 L 251.5 127 L 252.5 125 Z " /><path fill="rgb(0,0,0)" stroke="rgb(0,0,0)" stroke-width="1" opacity="0.8313725490196079" d="M 405.5 126 L 403.5 129 L 405.5 126 Z " /><path fill="rgb(0,0,0)" stroke="rgb(0,0,0)" stroke-width="1" opacity="0.8313725490196079" d="M 232.5 129 L 238 129.5 L 232.5 130 L 232.5 129 Z " /><path fill="rgb(0,0,0)" stroke="rgb(0,0,0)" stroke-width="1" opacity="0.8313725490196079" d="M 239.5 129 L 243 129.5 L 239.5 130 L 239.5 129 Z " /><path fill="rgb(0,0,0)" stroke="rgb(0,0,0)" stroke-width="1" opacity="0.8313725490196079" d="M 274.5 135 L 269.5 141 L 274.5 135 Z " /><path fill="rgb(0,0,0)" stroke="rgb(0,0,0)" stroke-width="1" opacity="0.8313725490196079" d="M 424.5 141 L 421.5 145 L 424.5 141 Z " /><path fill="rgb(0,0,0)" stroke="rgb(0,0,0)" stroke-width="1" opacity="0.8313725490196079" d="M 408.5 149 L 411 149.5 L 408.5 150 L 408.5 149 Z " /><path fill="rgb(0,0,0)" stroke="rgb(0,0,0)" stroke-width="1" opacity="0.8313725490196079" d="M 231.5 150 L 238 150.5 L 231.5 151 L 231.5 150 Z " /><path fill="rgb(0,0,0)" stroke="rgb(0,0,0)" stroke-width="1" opacity="0.8313725490196079" d="M 240.5 150 L 245 150.5 L 240.5 151 L 240.5 150 Z " /><path fill="rgb(0,0,0)" stroke="rgb(0,0,0)" stroke-width="1" opacity="0.8313725490196079" d="M 385.5 150 L 400 150.5 L 385.5 151 L 385.5 150 Z " /><path fill="rgb(0,0,0)" stroke="rgb(0,0,0)" stroke-width="1" opacity="0" d="M 0 0 L 65 0.5 Q 33.3 5.8 17 26.5 L 6 43.5 L 0.5 63 L 0 0 Z " /><path fill="rgb(0,0,0)" stroke="rgb(0,0,0)" stroke-width="1" opacity="0" d="M 85.5 0 L 639.5 0 L 640 0.5 L 640 23 L 610.5 23 L 608.5 24 L 572.5 58 L 572 1 L 549.5 1 L 549 1.5 L 549 112 L 572 112 L 572 88.5 L 585.5 75 L 589 78.5 L 612 112 L 640 112 L 640 151 L 406 150.5 Q 420.4 149.9 426 140.5 L 430 129.5 L 430 23 L 406.5 23 L 406 23.5 L 406 124.5 L 402.5 129 L 385.5 129 L 384 130.5 L 384 149.5 L 385 150.5 L 247.5 151 L 247.5 150 Q 267.2 147.7 276 134.5 Q 282.1 127.1 284 115.5 L 284 23 L 261 23 L 261 31.5 L 259.5 32 L 248.5 25 L 239.5 23 L 227.5 23 L 215.5 26 L 207.5 30 L 197 39.5 L 190 52.5 L 188 61.5 L 188 72.5 L 193 88.5 L 204.5 102 Q 212.4 108.6 224.5 111 L 243.5 111 L 252.5 108 L 260.5 102 L 261 113.5 L 254.5 124 Q 247 131.5 229.5 129 Q 217.4 126.6 210.5 119 L 196 134.5 Q 207.1 147.9 229 150.5 L 0 151 L 0.5 87 Q 6.4 119.1 28.5 135 L 45.5 145 L 55.5 146 L 64 139.5 Q 67.3 135.8 66 127.5 Q 64.6 121.4 59.5 119 Q 46 114 38 103.5 L 30 87.5 Q 27.4 79.6 29 67.5 Q 32.7 50.7 43.5 41 Q 51.4 33.4 63.5 30 L 82.5 29 Q 102.3 32.7 112 46.5 L 121 64.5 L 122 80.5 Q 118.8 99.8 106.5 110 L 87 122.5 L 84 129.5 L 84 133.5 Q 84.9 140.1 89.5 143 Q 93.3 147.2 102.5 146 Q 121.9 138.4 134 123.5 Q 144 111.5 149 94.5 L 151 83.5 L 151 66.5 L 148 52.5 L 142 38.5 L 127.5 20 Q 118.6 11.4 106.5 6 L 90.5 1 L 85.5 1 L 85.5 0 Z M 338 23 Q 321 26 312 35 Q 301 44 298 60 L 298 75 L 299 80 L 306 94 Q 313 102 323 107 L 335 111 L 343 111 L 344 112 Q 366 111 379 100 Q 390 90 393 73 L 392 57 L 385 42 Q 377 31 365 26 L 354 23 L 338 23 Z M 484 23 L 472 26 L 461 32 Q 448 41 444 60 L 444 76 L 445 81 L 453 96 Q 460 104 471 108 L 487 112 L 506 111 Q 518 108 526 101 L 531 95 L 517 84 L 515 84 L 505 91 L 494 92 L 493 93 Q 491 90 485 92 L 476 88 Q 469 84 467 77 L 468 75 L 535 75 L 535 60 Q 533 48 527 41 Q 520 32 511 27 L 496 23 L 484 23 Z M 70 47 L 60 51 Q 50 57 47 70 L 47 82 L 52 93 Q 59 101 72 104 Q 86 105 94 98 Q 101 92 104 81 L 104 70 L 99 59 Q 91 46 70 47 Z " /><path fill="rgb(0,0,0)" stroke="rgb(0,0,0)" stroke-width="1" opacity="0" d="M 639.5 24 L 640 110.5 L 638 109.5 L 601 60.5 L 639.5 24 Z " /><path fill="rgb(0,0,0)" stroke="rgb(0,0,0)" stroke-width="1" opacity="0" d="M 488.5 42 L 500.5 44 L 510 51.5 L 512 58 L 468.5 58 L 468 54.5 L 473.5 47 L 479.5 44 L 488.5 42 Z " /><path fill="rgb(0,0,0)" stroke="rgb(0,0,0)" stroke-width="1" opacity="0" d="M 233.5 44 Q 252 43 258 54.5 L 260 58.5 L 260 75.5 Q 257.8 82.3 252.5 86 Q 245.2 92.2 229.5 90 Q 220.4 88.1 216 81.5 L 212 71.5 L 212 63.5 Q 213.5 53.5 220.5 49 L 225.5 46 L 233.5 44 Z " /><path fill="rgb(0,0,0)" stroke="rgb(0,0,0)" stroke-width="1" opacity="0" d="M 339.5 44 Q 359 42 365 53.5 Q 369.4 59.1 369 69.5 L 366 79.5 L 360.5 86 Q 354.3 91.3 342.5 91 L 332.5 88 L 326 82.5 Q 320.7 76.3 321 64.5 Q 323 52.5 331.5 47 L 339.5 44 Z " /><path fill="rgb(0,0,0)" stroke="rgb(0,0,0)" stroke-width="1" opacity="0.996078431372549" d="M 609.5 24 L 606.5 28 L 609.5 24 Z " /><path fill="rgb(0,0,0)" stroke="rgb(0,0,0)" stroke-width="1" opacity="0.996078431372549" d="M 258.5 31 L 262 33.5 L 260.5 34 L 258.5 31 Z " /><path fill="rgb(0,0,0)" stroke="rgb(0,0,0)" stroke-width="1" opacity="0.996078431372549" d="M 204.5 33 L 203.5 35 L 204.5 33 Z " /><path fill="rgb(0,0,0)" stroke="rgb(0,0,0)" stroke-width="1" opacity="0.996078431372549" d="M 313.5 34 L 308.5 40 L 313.5 34 Z " /><path fill="rgb(0,0,0)" stroke="rgb(0,0,0)" stroke-width="1" opacity="0.996078431372549" d="M 626.5 35 L 621.5 41 L 626.5 35 Z " /><path fill="rgb(0,0,0)" stroke="rgb(0,0,0)" stroke-width="1" opacity="0.996078431372549" d="M 595.5 37 L 591.5 42 L 595.5 37 Z " /><path fill="rgb(0,0,0)" stroke="rgb(0,0,0)" stroke-width="1" opacity="0.996078431372549" d="M 383.5 41 L 384.5 43 L 383.5 41 Z " /><path fill="rgb(0,0,0)" stroke="rgb(0,0,0)" stroke-width="1" opacity="0.996078431372549" d="M 473.5 46 L 470.5 50 L 473.5 46 Z " /><path fill="rgb(0,0,0)" stroke="rgb(0,0,0)" stroke-width="1" opacity="0.996078431372549" d="M 254.5 49 L 256.5 52 L 254.5 49 Z " /><path fill="rgb(0,0,0)" stroke="rgb(0,0,0)" stroke-width="1" opacity="0.996078431372549" d="M 580.5 51 L 576.5 56 L 580.5 51 Z " /><path fill="rgb(0,0,0)" stroke="rgb(0,0,0)" stroke-width="1" opacity="0.996078431372549" d="M 609.5 51 L 604.5 57 L 609.5 51 Z " /><path fill="rgb(0,0,0)" stroke="rgb(0,0,0)" stroke-width="1" opacity="0.996078431372549" d="M 602.5 63 L 603.5 65 L 602.5 63 Z " /><path fill="rgb(0,0,0)" stroke="rgb(0,0,0)" stroke-width="1" opacity="0.996078431372549" d="M 211.5 64 L 212 69.5 L 211 69.5 L 211.5 64 Z " /><path fill="rgb(0,0,0)" stroke="rgb(0,0,0)" stroke-width="1" opacity="0.996078431372549" d="M 605.5 67 L 606.5 69 L 605.5 67 Z " /><path fill="rgb(0,0,0)" stroke="rgb(0,0,0)" stroke-width="1" opacity="0.996078431372549" d="M 466 74 L 535 74.5 L 467.5 75 L 466.5 76 L 466 74 Z " /><path fill="rgb(0,0,0)" stroke="rgb(0,0,0)" stroke-width="1" opacity="0.996078431372549" d="M 586.5 74 L 587.5 76 L 586.5 74 Z " /><path fill="rgb(0,0,0)" stroke="rgb(0,0,0)" stroke-width="1" opacity="0.996078431372549" d="M 325.5 82 L 326.5 84 L 325.5 82 Z " /><path fill="rgb(0,0,0)" stroke="rgb(0,0,0)" stroke-width="1" opacity="0.996078431372549" d="M 574.5 84 L 571.5 88 L 574.5 84 Z " /><path fill="rgb(0,0,0)" stroke="rgb(0,0,0)" stroke-width="1" opacity="0.996078431372549" d="M 306.5 92 L 307.5 94 L 306.5 92 Z " /><path fill="rgb(0,0,0)" stroke="rgb(0,0,0)" stroke-width="1" opacity="0.996078431372549" d="M 599.5 92 L 600.5 94 L 599.5 92 Z " /><path fill="rgb(0,0,0)" stroke="rgb(0,0,0)" stroke-width="1" opacity="0.996078431372549" d="M 624.5 92 L 625.5 94 L 624.5 92 Z " /><path fill="rgb(0,0,0)" stroke="rgb(0,0,0)" stroke-width="1" opacity="0.996078431372549" d="M 382.5 94 L 376.5 101 L 382.5 94 Z " /><path fill="rgb(0,0,0)" stroke="rgb(0,0,0)" stroke-width="1" opacity="0.996078431372549" d="M 453.5 94 L 454.5 96 L 453.5 94 Z " /><path fill="rgb(0,0,0)" stroke="rgb(0,0,0)" stroke-width="1" opacity="0.996078431372549" d="M 458.5 99 L 459.5 101 L 458.5 99 Z " /><path fill="rgb(0,0,0)" stroke="rgb(0,0,0)" stroke-width="1" opacity="0.996078431372549" d="M 612.5 110 L 613.5 111 L 639 111.5 L 613.5 112 L 612.5 110 Z " /><path fill="rgb(0,0,0)" stroke="rgb(0,0,0)" stroke-width="1" opacity="0.996078431372549" d="M 210.5 120 L 208.5 123 L 210.5 120 Z " /><path fill="rgb(0,0,0)" stroke="rgb(0,0,0)" stroke-width="1" opacity="0.996078431372549" d="M 212.5 121 L 213.5 123 L 212.5 121 Z " /><path fill="rgb(0,0,0)" stroke="rgb(0,0,0)" stroke-width="1" opacity="0.996078431372549" d="M 254.5 124 L 253.5 126 L 254.5 124 Z " /><path fill="rgb(0,0,0)" stroke="rgb(0,0,0)" stroke-width="1" opacity="1" d="M 549 1 L 571 1 L 571 58.5 L 572.5 59 L 610.5 24 L 637.5 24 L 627.5 35 L 600 60.5 L 638 110.5 L 613.5 111 L 586.5 74 L 571 87.5 L 571 112 L 549 112 L 549 1 Z " /><path fill="rgb(0,0,0)" stroke="rgb(0,0,0)" stroke-width="1" opacity="1" d="M 225.5 24 Q 237.6 22.4 245.5 25 L 253.5 28 L 262 34 L 262 24 L 283 24 L 283 117.5 Q 279.4 132.9 268.5 141 Q 260.6 147.6 248.5 150 L 228.5 150 L 211.5 145 Q 202.7 141.3 197 134.5 L 207.5 123 L 211.5 121 L 222.5 128 L 231.5 130 L 243.5 130 Q 253.2 128.2 258 121.5 Q 263.8 114.6 262 101 L 247.5 109 L 238.5 111 L 229.5 111 L 219.5 109 L 208.5 104 L 198 94.5 Q 187.3 83.2 189 59.5 Q 192.3 43.8 202.5 35 Q 211 26.5 225.5 24 Z M 237 43 Q 235 46 230 44 L 221 48 Q 213 53 211 65 Q 211 75 215 82 Q 220 89 231 91 Q 245 93 253 87 Q 259 83 261 75 Q 264 59 257 52 L 248 45 L 237 43 Z " /><path fill="rgb(0,0,0)" stroke="rgb(0,0,0)" stroke-width="1" opacity="1" d="M 335.5 24 L 354.5 24 L 362.5 26 Q 375.4 30.6 383 40.5 L 391 56.5 Q 393.3 63.2 392 73.5 Q 388.3 92.8 374.5 102 Q 362.4 111.9 339.5 111 L 320.5 105 L 308 94.5 L 301 82.5 L 298 66.5 L 299 65.5 L 300 54.5 L 304 45.5 L 316.5 32 Q 324.3 26.3 335.5 24 Z M 341 43 L 332 46 Q 324 51 321 61 Q 319 76 325 83 Q 329 89 339 91 Q 354 93 361 87 Q 367 83 369 75 L 369 61 L 363 49 L 354 44 L 341 43 Z " /><path fill="rgb(0,0,0)" stroke="rgb(0,0,0)" stroke-width="1" opacity="1" d="M 407 24 L 428.5 24 L 429 24.5 L 429 130.5 Q 427.2 140.2 420.5 145 L 415.5 148 L 407.5 150 L 385 150 L 385 130 L 401.5 130 L 406 126.5 L 407 124.5 L 407 24 Z " /><path fill="rgb(0,0,0)" stroke="rgb(0,0,0)" stroke-width="1" opacity="1" d="M 482.5 24 L 497.5 24 L 508.5 27 Q 519.2 31.8 526 40.5 L 533 54.5 L 535 74 L 466.5 74 L 466 75.5 Q 467.9 85.1 475.5 89 L 485.5 93 L 499.5 93 L 506.5 91 L 514.5 85 L 516.5 85 L 530 94 L 525.5 100 L 509.5 109 L 500.5 111 L 484.5 111 L 472.5 108 Q 462.2 103.8 455 96.5 L 447 83.5 L 444 67.5 L 447 51.5 Q 451.5 40 460.5 33 L 473.5 26 L 482.5 24 Z M 483 42 L 474 46 L 467 56 L 468 59 L 513 59 L 511 52 Q 504 39 483 42 Z " /><path fill="rgb(0,171,10)" stroke="rgb(0,171,10)" stroke-width="1" opacity="0.6980392156862745" d="M 65.5 0 L 85 0.5 L 65.5 1 L 65.5 0 Z " /><path fill="rgb(0,171,10)" stroke="rgb(0,171,10)" stroke-width="1" opacity="0.6980392156862745" d="M 60.5 1 L 64 1.5 L 60.5 2 L 60.5 1 Z " /><path fill="rgb(0,171,10)" stroke="rgb(0,171,10)" stroke-width="1" opacity="0.6980392156862745" d="M 87.5 1 L 91 1.5 L 87.5 2 L 87.5 1 Z " /><path fill="rgb(0,171,10)" stroke="rgb(0,171,10)" stroke-width="1" opacity="0.6980392156862745" d="M 55.5 2 L 59 2.5 L 47.5 6 L 47.5 5 L 55.5 2 Z " /><path fill="rgb(0,171,10)" stroke="rgb(0,171,10)" stroke-width="1" opacity="0.6980392156862745" d="M 92.5 2 L 95 2.5 L 92.5 3 L 92.5 2 Z " /><path fill="rgb(0,171,10)" stroke="rgb(0,171,10)" stroke-width="1" opacity="0.6980392156862745" d="M 96.5 3 L 104 5.5 L 102.5 6 L 96.5 4 L 96.5 3 Z " /><path fill="rgb(0,171,10)" stroke="rgb(0,171,10)" stroke-width="1" opacity="0.6980392156862745" d="M 44.5 6 L 46 6.5 Q 29.7 13.2 19 25.5 L 9.5 39 L 10 37.5 L 13 31.5 L 25.5 18 L 44.5 6 Z " /><path fill="rgb(0,171,10)" stroke="rgb(0,171,10)" stroke-width="1" opacity="0.6980392156862745" d="M 105.5 6 Q 121.7 12.3 132 24.5 Q 140.3 33.2 145 45.5 L 144 45.5 Q 136.4 27.1 121.5 16 L 105.5 7 L 105.5 6 Z " /><path fill="rgb(0,171,10)" stroke="rgb(0,171,10)" stroke-width="1" opacity="0.6980392156862745" d="M 69.5 28 L 82 28.5 L 69.5 29 L 69.5 28 Z " /><path fill="rgb(0,171,10)" stroke="rgb(0,171,10)" stroke-width="1" opacity="0.6980392156862745" d="M 64.5 29 L 68 29.5 L 64.5 30 L 64.5 29 Z " /><path fill="rgb(0,171,10)" stroke="rgb(0,171,10)" stroke-width="1" opacity="0.6980392156862745" d="M 83.5 29 L 90 30.5 L 87.5 31 L 83.5 30 L 83.5 29 Z " /><path fill="rgb(0,171,10)" stroke="rgb(0,171,10)" stroke-width="1" opacity="0.6980392156862745" d="M 60.5 30 L 63 30.5 Q 49.1 34.1 41 43.5 Q 32 52 29.5 67 L 29 63.5 Q 33.5 48 44.5 39 L 60.5 30 Z " /><path fill="rgb(0,171,10)" stroke="rgb(0,171,10)" stroke-width="1" opacity="0.6980392156862745" d="M 91.5 31 L 95 32.5 L 93.5 33 L 91.5 31 Z " /><path fill="rgb(0,171,10)" stroke="rgb(0,171,10)" stroke-width="1" opacity="0.6980392156862745" d="M 98.5 34 Q 108.1 38.9 114 47.5 L 120 58.5 L 121 63.5 L 120 63.5 Q 116 46.5 103.5 38 Q 98.9 36.8 98.5 34 Z " /><path fill="rgb(0,171,10)" stroke="rgb(0,171,10)" stroke-width="1" opacity="0.6980392156862745" d="M 8.5 40 L 8 41.5 L 2.5 57 L 2 54.5 L 8.5 40 Z " /><path fill="rgb(0,171,10)" stroke="rgb(0,171,10)" stroke-width="1" opacity="0.6980392156862745" d="M 69.5 47 L 82 47.5 L 69.5 48 L 69.5 47 Z " /><path fill="rgb(0,171,10)" stroke="rgb(0,171,10)" stroke-width="1" opacity="0.6980392156862745" d="M 145.5 47 L 148 54.5 L 147 54.5 L 145.5 47 Z " /><path fill="rgb(0,171,10)" stroke="rgb(0,171,10)" stroke-width="1" opacity="0.6980392156862745" d="M 65.5 48 L 68 48.5 Q 57.2 51.2 52 59.5 L 48.5 68 L 48 65.5 Q 51.6 56.1 59.5 51 L 65.5 48 Z " /><path fill="rgb(0,171,10)" stroke="rgb(0,171,10)" stroke-width="1" opacity="0.6980392156862745" d="M 86.5 49 Q 94.6 51.9 99 58.5 L 104 69.5 L 104 80.5 L 103 80.5 Q 104.3 60.3 92.5 53 L 86.5 50 L 86.5 49 Z " /><path fill="rgb(0,171,10)" stroke="rgb(0,171,10)" stroke-width="1" opacity="0.6980392156862745" d="M 148.5 56 L 149 58.5 L 148 58.5 L 148.5 56 Z " /><path fill="rgb(0,171,10)" stroke="rgb(0,171,10)" stroke-width="1" opacity="0.6980392156862745" d="M 1.5 58 L 2 61.5 L 1 61.5 L 1.5 58 Z " /><path fill="rgb(0,171,10)" stroke="rgb(0,171,10)" stroke-width="1" opacity="0.6980392156862745" d="M 149.5 60 L 150 64.5 L 149 64.5 L 149.5 60 Z " /><path fill="rgb(0,171,10)" stroke="rgb(0,171,10)" stroke-width="1" opacity="0.6980392156862745" d="M 0.5 63 L 1 69.5 L 0 69.5 L 0.5 63 Z " /><path fill="rgb(0,171,10)" stroke="rgb(0,171,10)" stroke-width="1" opacity="0.6980392156862745" d="M 121.5 65 L 122 69.5 L 121 69.5 L 121.5 65 Z " /><path fill="rgb(0,171,10)" stroke="rgb(0,171,10)" stroke-width="1" opacity="0.6980392156862745" d="M 150.5 66 L 151 83.5 L 150 83.5 L 150.5 66 Z " /><path fill="rgb(0,171,10)" stroke="rgb(0,171,10)" stroke-width="1" opacity="0.6980392156862745" d="M 28.5 68 L 29 82.5 L 28 82.5 L 28.5 68 Z " /><path fill="rgb(0,171,10)" stroke="rgb(0,171,10)" stroke-width="1" opacity="0.6980392156862745" d="M 47.5 69 L 48 81.5 L 47 81.5 L 47.5 69 Z " /><path fill="rgb(0,171,10)" stroke="rgb(0,171,10)" stroke-width="1" opacity="0.6980392156862745" d="M 122.5 71 L 123 78.5 L 122 78.5 L 122.5 71 Z " /><path fill="rgb(0,171,10)" stroke="rgb(0,171,10)" stroke-width="1" opacity="0.6980392156862745" d="M 0.5 79 L 1 86.5 L 0 86.5 L 0.5 79 Z " /><path fill="rgb(0,171,10)" stroke="rgb(0,171,10)" stroke-width="1" opacity="0.6980392156862745" d="M 121.5 81 L 122 85.5 L 120.5 89 L 120 86.5 L 121.5 81 Z " /><path fill="rgb(0,171,10)" stroke="rgb(0,171,10)" stroke-width="1" opacity="0.6980392156862745" d="M 102.5 82 L 103 84.5 Q 99.9 92.9 93.5 98 L 85.5 102 L 85.5 101 L 96 94.5 L 102.5 82 Z " /><path fill="rgb(0,171,10)" stroke="rgb(0,171,10)" stroke-width="1" opacity="0.6980392156862745" d="M 29.5 84 L 30 86.5 L 29 86.5 L 29.5 84 Z " /><path fill="rgb(0,171,10)" stroke="rgb(0,171,10)" stroke-width="1" opacity="0.6980392156862745" d="M 149.5 85 L 150 89.5 L 149 89.5 L 149.5 85 Z " /><path fill="rgb(0,171,10)" stroke="rgb(0,171,10)" stroke-width="1" opacity="0.6980392156862745" d="M 49.5 86 L 57.5 97 L 66 101.5 L 64.5 102 Q 56.8 98.8 52 92.5 L 49 87.5 L 49.5 86 Z " /><path fill="rgb(0,171,10)" stroke="rgb(0,171,10)" stroke-width="1" opacity="0.6980392156862745" d="M 1.5 88 L 2 91.5 L 1 91.5 L 1.5 88 Z " /><path fill="rgb(0,171,10)" stroke="rgb(0,171,10)" stroke-width="1" opacity="0.6980392156862745" d="M 30.5 88 L 33 94.5 L 32 94.5 Q 29 92 30.5 88 Z " /><path fill="rgb(0,171,10)" stroke="rgb(0,171,10)" stroke-width="1" opacity="0.6980392156862745" d="M 119.5 90 L 120 91.5 L 116.5 98 L 117 96.5 L 119.5 90 Z " /><path fill="rgb(0,171,10)" stroke="rgb(0,171,10)" stroke-width="1" opacity="0.6980392156862745" d="M 148.5 91 L 149 94.5 L 147.5 98 L 147 95.5 L 148.5 91 Z " /><path fill="rgb(0,171,10)" stroke="rgb(0,171,10)" stroke-width="1" opacity="0.6980392156862745" d="M 2.5 93 L 3 95.5 L 2 95.5 L 2.5 93 Z " /><path fill="rgb(0,171,10)" stroke="rgb(0,171,10)" stroke-width="1" opacity="0.6980392156862745" d="M 33.5 96 Q 38.2 105.8 46.5 112 L 59.5 119 L 65 124.5 L 66 135.5 L 64.5 138 L 64 136.5 L 65 135.5 L 65 127.5 L 59.5 120 Q 45.3 114.7 37 103.5 L 33.5 96 Z " /><path fill="rgb(0,171,10)" stroke="rgb(0,171,10)" stroke-width="1" opacity="0.6980392156862745" d="M 115.5 99 L 115 100.5 L 105.5 112 L 97.5 117 L 98.5 115 L 110 106.5 L 115.5 99 Z " /><path fill="rgb(0,171,10)" stroke="rgb(0,171,10)" stroke-width="1" opacity="0.6980392156862745" d="M 146.5 99 L 147 100.5 Q 139.5 120.5 124.5 133 L 106.5 144 L 106.5 143 Q 122.2 136.7 132 124.5 Q 141.5 114 146.5 99 Z " /><path fill="rgb(0,171,10)" stroke="rgb(0,171,10)" stroke-width="1" opacity="0.6980392156862745" d="M 4.5 100 Q 12 120.5 27.5 133 L 47 144.5 L 45.5 145 Q 26.8 136.8 15 121.5 L 5 104.5 L 4.5 100 Z " /><path fill="rgb(0,171,10)" stroke="rgb(0,171,10)" stroke-width="1" opacity="0.6980392156862745" d="M 67.5 102 L 70 102.5 L 67.5 103 L 67.5 102 Z " /><path fill="rgb(0,171,10)" stroke="rgb(0,171,10)" stroke-width="1" opacity="0.6980392156862745" d="M 81.5 102 L 84 102.5 L 81.5 103 L 81.5 102 Z " /><path fill="rgb(0,171,10)" stroke="rgb(0,171,10)" stroke-width="1" opacity="0.6980392156862745" d="M 71.5 103 L 80 103.5 L 71.5 104 L 71.5 103 Z " /><path fill="rgb(0,171,10)" stroke="rgb(0,171,10)" stroke-width="1" opacity="0.6980392156862745" d="M 94.5 117 L 96 117.5 L 88 122.5 L 86.5 125 L 87 123.5 L 89.5 120 L 94.5 117 Z " /><path fill="rgb(0,171,10)" stroke="rgb(0,171,10)" stroke-width="1" opacity="0.6980392156862745" d="M 84.5 129 L 85 133.5 L 84 133.5 L 84.5 129 Z " /><path fill="rgb(0,171,10)" stroke="rgb(0,171,10)" stroke-width="1" opacity="0.6980392156862745" d="M 85.5 135 L 89.5 142 L 94 144.5 L 92.5 145 L 87 140.5 Q 84 138.7 85.5 135 Z " /><path fill="rgb(0,171,10)" stroke="rgb(0,171,10)" stroke-width="1" opacity="0.6980392156862745" d="M 63.5 139 L 59.5 144 Q 56.2 147.2 48.5 146 L 48.5 145 L 55.5 145 L 63.5 139 Z " /><path fill="rgb(0,171,10)" stroke="rgb(0,171,10)" stroke-width="1" opacity="0.6980392156862745" d="M 103.5 144 L 105 144.5 Q 102.3 147.3 95.5 146 L 95.5 145 Q 101.7 146.8 103.5 144 Z " /><path fill="rgb(0,171,11)" stroke="rgb(0,171,11)" stroke-width="1" opacity="0.996078431372549" d="M 30.5 15 L 29.5 17 L 30.5 15 Z " /><path fill="rgb(0,171,11)" stroke="rgb(0,171,11)" stroke-width="1" opacity="0.996078431372549" d="M 121.5 16 L 122.5 18 L 121.5 16 Z " /><path fill="rgb(0,171,11)" stroke="rgb(0,171,11)" stroke-width="1" opacity="0.996078431372549" d="M 25.5 19 L 19.5 26 L 25.5 19 Z " /><path fill="rgb(0,171,11)" stroke="rgb(0,171,11)" stroke-width="1" opacity="0.996078431372549" d="M 133.5 28 L 134.5 30 L 133.5 28 Z " /><path fill="rgb(0,171,11)" stroke="rgb(0,171,11)" stroke-width="1" opacity="0.996078431372549" d="M 16.5 29 L 15.5 31 L 16.5 29 Z " /><path fill="rgb(0,171,11)" stroke="rgb(0,171,11)" stroke-width="1" opacity="0.996078431372549" d="M 136.5 32 L 137.5 34 L 136.5 32 Z " /><path fill="rgb(0,171,11)" stroke="rgb(0,171,11)" stroke-width="1" opacity="0.996078431372549" d="M 13.5 33 L 12.5 35 L 13.5 33 Z " /><path fill="rgb(0,171,11)" stroke="rgb(0,171,11)" stroke-width="1" opacity="0.996078431372549" d="M 46.5 37 L 45.5 39 L 46.5 37 Z " /><path fill="rgb(0,171,11)" stroke="rgb(0,171,11)" stroke-width="1" opacity="0.996078431372549" d="M 105.5 38 L 111.5 45 L 105.5 38 Z " /><path fill="rgb(0,171,11)" stroke="rgb(0,171,11)" stroke-width="1" opacity="0.996078431372549" d="M 38.5 45 L 37.5 47 L 38.5 45 Z " /><path fill="rgb(0,171,11)" stroke="rgb(0,171,11)" stroke-width="1" opacity="0.996078431372549" d="M 59.5 52 L 58.5 54 L 59.5 52 Z " /><path fill="rgb(0,171,11)" stroke="rgb(0,171,11)" stroke-width="1" opacity="0.996078431372549" d="M 92.5 53 L 97.5 59 L 92.5 53 Z " /><path fill="rgb(0,171,11)" stroke="rgb(0,171,11)" stroke-width="1" opacity="0.996078431372549" d="M 53.5 58 L 52.5 60 L 53.5 58 Z " /><path fill="rgb(0,171,11)" stroke="rgb(0,171,11)" stroke-width="1" opacity="0.996078431372549" d="M 0.5 70 L 1 78.5 L 0 78.5 L 0.5 70 Z " /><path fill="rgb(0,171,11)" stroke="rgb(0,171,11)" stroke-width="1" opacity="0.996078431372549" d="M 54.5 93 L 57.5 97 L 54.5 93 Z " /><path fill="rgb(0,171,11)" stroke="rgb(0,171,11)" stroke-width="1" opacity="0.996078431372549" d="M 95.5 94 L 94.5 96 L 95.5 94 Z " /><path fill="rgb(0,171,11)" stroke="rgb(0,171,11)" stroke-width="1" opacity="0.996078431372549" d="M 113.5 103 L 112.5 105 L 113.5 103 Z " /><path fill="rgb(0,171,11)" stroke="rgb(0,171,11)" stroke-width="1" opacity="0.996078431372549" d="M 39.5 106 L 44.5 112 L 39.5 106 Z " /><path fill="rgb(0,171,11)" stroke="rgb(0,171,11)" stroke-width="1" opacity="0.996078431372549" d="M 104.5 112 L 103.5 114 L 104.5 112 Z " /><path fill="rgb(0,171,11)" stroke="rgb(0,171,11)" stroke-width="1" opacity="0.996078431372549" d="M 47.5 113 L 48.5 115 L 47.5 113 Z " /><path fill="rgb(0,171,11)" stroke="rgb(0,171,11)" stroke-width="1" opacity="0.996078431372549" d="M 135.5 119 L 134.5 121 L 135.5 119 Z " /><path fill="rgb(0,171,11)" stroke="rgb(0,171,11)" stroke-width="1" opacity="0.996078431372549" d="M 89.5 121 L 88.5 123 L 89.5 121 Z " /><path fill="rgb(0,171,11)" stroke="rgb(0,171,11)" stroke-width="1" opacity="0.996078431372549" d="M 17.5 122 L 19.5 125 L 17.5 122 Z " /><path fill="rgb(0,171,11)" stroke="rgb(0,171,11)" stroke-width="1" opacity="0.996078431372549" d="M 62.5 123 L 63.5 125 L 62.5 123 Z " /><path fill="rgb(0,171,11)" stroke="rgb(0,171,11)" stroke-width="1" opacity="0.996078431372549" d="M 131.5 124 L 125.5 131 L 131.5 124 Z " /><path fill="rgb(0,171,11)" stroke="rgb(0,171,11)" stroke-width="1" opacity="0.996078431372549" d="M 25.5 130 L 27.5 133 L 25.5 130 Z " /><path fill="rgb(0,171,11)" stroke="rgb(0,171,11)" stroke-width="1" opacity="0.996078431372549" d="M 117.5 136 L 116.5 138 L 117.5 136 Z " /><path fill="rgb(0,171,11)" stroke="rgb(0,171,11)" stroke-width="1" opacity="0.996078431372549" d="M 63.5 138 L 62.5 140 L 63.5 138 Z " /><path fill="rgb(0,171,11)" stroke="rgb(0,171,11)" stroke-width="1" opacity="0.996078431372549" d="M 88.5 140 L 89.5 142 L 88.5 140 Z " /><path fill="rgb(0,171,11)" stroke="rgb(0,171,11)" stroke-width="1" opacity="1" d="M 66.5 1 L 84.5 1 L 103.5 6 Q 121.3 13.7 133 27.5 Q 143 39.5 148 56.5 L 150 66.5 L 150 83.5 L 147 97.5 L 142 109.5 Q 134 124 121.5 134 L 104.5 144 L 95.5 145 L 87 138.5 Q 84.4 135.6 85 129.5 Q 86.5 123 91.5 120 Q 106 115 114 103.5 L 122 86.5 L 123 69.5 Q 119.4 48.6 105.5 38 L 87.5 29 L 82.5 28 L 67.5 28 Q 47 32 37 46.5 Q 25.9 58.4 28 83.5 Q 32.1 101.9 44.5 112 L 62 122.5 Q 66.5 126 65 135.5 L 60.5 142 Q 57 146 48.5 145 Q 31.4 138.1 20 125.5 Q 8.7 113.3 3 95.5 L 1 86.5 L 1 63.5 Q 7.4 32.9 28.5 17 L 47.5 6 L 66.5 1 Z " /><path fill="rgb(0,171,11)" stroke="rgb(0,171,11)" stroke-width="1" opacity="1" d="M 69.5 48 Q 79 46.5 84.5 49 Q 93.9 52.6 99 60.5 L 103 70.5 L 103 80.5 Q 100.1 92.1 91.5 98 Q 84.7 103.7 71.5 103 Q 58.1 100.3 52 90.5 Q 46.2 83.8 48 69.5 Q 50.4 59.4 57.5 54 L 69.5 48 Z " /><path fill="rgb(0,31,2)" stroke="rgb(0,31,2)" stroke-width="1" opacity="0.40784313725490196" d="M 227.5 23 L 230 23.5 L 227.5 24 L 227.5 23 Z " /><path fill="rgb(0,31,2)" stroke="rgb(0,31,2)" stroke-width="1" opacity="0.40784313725490196" d="M 237.5 23 L 240 23.5 L 237.5 24 L 237.5 23 Z " /><path fill="rgb(0,31,2)" stroke="rgb(0,31,2)" stroke-width="1" opacity="0.40784313725490196" d="M 483.5 23 L 487 23.5 L 483.5 24 L 483.5 23 Z " /><path fill="rgb(0,31,2)" stroke="rgb(0,31,2)" stroke-width="1" opacity="0.40784313725490196" d="M 492.5 23 L 496 23.5 L 492.5 24 L 492.5 23 Z " /><path fill="rgb(0,31,2)" stroke="rgb(0,31,2)" stroke-width="1" opacity="0.40784313725490196" d="M 610.5 23 L 640 23.5 L 610.5 24 L 610.5 23 Z " /><path fill="rgb(0,31,2)" stroke="rgb(0,31,2)" stroke-width="1" opacity="0.40784313725490196" d="M 608.5 24 L 604.5 29 L 608.5 24 Z " /><path fill="rgb(0,31,2)" stroke="rgb(0,31,2)" stroke-width="1" opacity="0.40784313725490196" d="M 460.5 32 L 459.5 34 L 460.5 32 Z " /><path fill="rgb(0,31,2)" stroke="rgb(0,31,2)" stroke-width="1" opacity="0.40784313725490196" d="M 203.5 33 L 202.5 35 L 203.5 33 Z " /><path fill="rgb(0,31,2)" stroke="rgb(0,31,2)" stroke-width="1" opacity="0.40784313725490196" d="M 629.5 33 L 624.5 39 L 629.5 33 Z " /><path fill="rgb(0,31,2)" stroke="rgb(0,31,2)" stroke-width="1" opacity="0.40784313725490196" d="M 311.5 35 L 308.5 39 L 311.5 35 Z " /><path fill="rgb(0,31,2)" stroke="rgb(0,31,2)" stroke-width="1" opacity="0.40784313725490196" d="M 199.5 37 L 197.5 40 L 199.5 37 Z " /><path fill="rgb(0,31,2)" stroke="rgb(0,31,2)" stroke-width="1" opacity="0.40784313725490196" d="M 593.5 38 L 589.5 43 L 593.5 38 Z " /><path fill="rgb(0,31,2)" stroke="rgb(0,31,2)" stroke-width="1" opacity="0.40784313725490196" d="M 383.5 40 L 384.5 42 L 383.5 40 Z " /><path fill="rgb(0,31,2)" stroke="rgb(0,31,2)" stroke-width="1" opacity="0.40784313725490196" d="M 485.5 42 L 488 42.5 L 485.5 43 L 485.5 42 Z " /><path fill="rgb(0,31,2)" stroke="rgb(0,31,2)" stroke-width="1" opacity="0.40784313725490196" d="M 492.5 42 L 495 42.5 L 492.5 43 L 492.5 42 Z " /><path fill="rgb(0,31,2)" stroke="rgb(0,31,2)" stroke-width="1" opacity="0.40784313725490196" d="M 253.5 49 L 256.5 53 L 253.5 49 Z " /><path fill="rgb(0,31,2)" stroke="rgb(0,31,2)" stroke-width="1" opacity="0.40784313725490196" d="M 328.5 49 L 327.5 51 L 328.5 49 Z " /><path fill="rgb(0,31,2)" stroke="rgb(0,31,2)" stroke-width="1" opacity="0.40784313725490196" d="M 361.5 49 L 363.5 52 L 361.5 49 Z " /><path fill="rgb(0,31,2)" stroke="rgb(0,31,2)" stroke-width="1" opacity="0.40784313725490196" d="M 611.5 50 L 607.5 55 L 611.5 50 Z " /><path fill="rgb(0,31,2)" stroke="rgb(0,31,2)" stroke-width="1" opacity="0.40784313725490196" d="M 577.5 53 L 574.5 57 L 577.5 53 Z " /><path fill="rgb(0,31,2)" stroke="rgb(0,31,2)" stroke-width="1" opacity="0.40784313725490196" d="M 467.5 57 L 468.5 58 L 512 58.5 L 468.5 59 L 467.5 57 Z " /><path fill="rgb(0,31,2)" stroke="rgb(0,31,2)" stroke-width="1" opacity="0.40784313725490196" d="M 392.5 62 L 393 65.5 L 392 65.5 L 392.5 62 Z " /><path fill="rgb(0,31,2)" stroke="rgb(0,31,2)" stroke-width="1" opacity="0.40784313725490196" d="M 602.5 62 L 603.5 64 L 602.5 62 Z " /><path fill="rgb(0,31,2)" stroke="rgb(0,31,2)" stroke-width="1" opacity="0.40784313725490196" d="M 605.5 66 L 606.5 68 L 605.5 66 Z " /><path fill="rgb(0,31,2)" stroke="rgb(0,31,2)" stroke-width="1" opacity="0.40784313725490196" d="M 392.5 68 L 393 72.5 L 392 72.5 L 392.5 68 Z " /><path fill="rgb(0,31,2)" stroke="rgb(0,31,2)" stroke-width="1" opacity="0.40784313725490196" d="M 586.5 75 L 587.5 77 L 586.5 75 Z " /><path fill="rgb(0,31,2)" stroke="rgb(0,31,2)" stroke-width="1" opacity="0.40784313725490196" d="M 576.5 83 L 572.5 88 L 576.5 83 Z " /><path fill="rgb(0,31,2)" stroke="rgb(0,31,2)" stroke-width="1" opacity="0.40784313725490196" d="M 471.5 84 L 472.5 86 L 471.5 84 Z " /><path fill="rgb(0,31,2)" stroke="rgb(0,31,2)" stroke-width="1" opacity="0.40784313725490196" d="M 233.5 90 L 240 90.5 L 233.5 91 L 233.5 90 Z " /><path fill="rgb(0,31,2)" stroke="rgb(0,31,2)" stroke-width="1" opacity="0.40784313725490196" d="M 624.5 91 L 625.5 93 L 624.5 91 Z " /><path fill="rgb(0,31,2)" stroke="rgb(0,31,2)" stroke-width="1" opacity="0.40784313725490196" d="M 488.5 92 L 492 92.5 L 488.5 93 L 488.5 92 Z " /><path fill="rgb(0,31,2)" stroke="rgb(0,31,2)" stroke-width="1" opacity="0.40784313725490196" d="M 493.5 92 L 497 92.5 L 493.5 93 L 493.5 92 Z " /><path fill="rgb(0,31,2)" stroke="rgb(0,31,2)" stroke-width="1" opacity="0.40784313725490196" d="M 306.5 93 L 307.5 95 L 306.5 93 Z " /><path fill="rgb(0,31,2)" stroke="rgb(0,31,2)" stroke-width="1" opacity="0.40784313725490196" d="M 382.5 95 L 378.5 100 L 382.5 95 Z " /><path fill="rgb(0,31,2)" stroke="rgb(0,31,2)" stroke-width="1" opacity="0.40784313725490196" d="M 453.5 95 L 458.5 101 L 453.5 95 Z " /><path fill="rgb(0,31,2)" stroke="rgb(0,31,2)" stroke-width="1" opacity="0.40784313725490196" d="M 526.5 99 L 525.5 101 L 526.5 99 Z " /><path fill="rgb(0,31,2)" stroke="rgb(0,31,2)" stroke-width="1" opacity="0.40784313725490196" d="M 313.5 100 L 314.5 102 L 313.5 100 Z " /><path fill="rgb(0,31,2)" stroke="rgb(0,31,2)" stroke-width="1" opacity="0.40784313725490196" d="M 260.5 101 L 258.5 104 L 260.5 101 Z " /><path fill="rgb(0,31,2)" stroke="rgb(0,31,2)" stroke-width="1" opacity="0.40784313725490196" d="M 343.5 111 L 348 111.5 L 343.5 112 L 343.5 111 Z " /><path fill="rgb(0,31,2)" stroke="rgb(0,31,2)" stroke-width="1" opacity="0.40784313725490196" d="M 486.5 111 L 491 111.5 L 486.5 112 L 486.5 111 Z " /><path fill="rgb(0,31,2)" stroke="rgb(0,31,2)" stroke-width="1" opacity="0.40784313725490196" d="M 496.5 111 L 500 111.5 L 496.5 112 L 496.5 111 Z " /><path fill="rgb(0,31,2)" stroke="rgb(0,31,2)" stroke-width="1" opacity="0.40784313725490196" d="M 210.5 119 L 205.5 125 L 210.5 119 Z " /><path fill="rgb(0,31,2)" stroke="rgb(0,31,2)" stroke-width="1" opacity="0.40784313725490196" d="M 429.5 127 L 430 129.5 L 429 129.5 L 429.5 127 Z " /><path fill="rgb(0,31,2)" stroke="rgb(0,31,2)" stroke-width="1" opacity="0.40784313725490196" d="M 385.5 129 L 400 129.5 L 385 130 L 384.5 150 L 384 130.5 L 385.5 129 Z " /><path fill="rgb(0,31,2)" stroke="rgb(0,31,2)" stroke-width="1" opacity="0.40784313725490196" d="M 200.5 138 L 201.5 140 L 200.5 138 Z " /><path fill="rgb(0,31,2)" stroke="rgb(0,31,2)" stroke-width="1" opacity="0.40784313725490196" d="M 400.5 150 L 406 150.5 L 400.5 151 L 400.5 150 Z " /></svg>